<svg width="60" height="31" viewBox="0 0 60 31" fill="none" xmlns="http://www.w3.org/2000/svg">
<path d="M7.83157 7.28771V30.2929H0V0.870174H7.36929L7.83157 7.28771ZM16.6965 0.679824L16.5605 7.94034C16.1798 7.88595 15.7175 7.84063 15.1737 7.80437C14.6479 7.74999 14.1675 7.7228 13.7324 7.7228C12.6266 7.7228 11.6658 7.86782 10.85 8.15788C10.0523 8.42981 9.38157 8.83771 8.83771 9.38157C8.31198 9.92542 7.91315 10.5871 7.64122 11.3666C7.38742 12.1462 7.24239 13.0345 7.20613 14.0316L5.62894 13.5421C5.62894 11.6386 5.81929 9.88917 6.19999 8.29385C6.58069 6.6804 7.13362 5.27543 7.85876 4.07894C8.60203 2.88245 9.50846 1.95789 10.5781 1.30526C11.6476 0.652631 12.8713 0.326315 14.2491 0.326315C14.6842 0.326315 15.1283 0.362573 15.5816 0.435087C16.0348 0.489473 16.4064 0.571052 16.6965 0.679824Z" fill="#6200EE"/>
<path d="M33.3929 30.8368C31.1087 30.8368 29.0602 30.4742 27.2473 29.7491C25.4345 29.0058 23.8935 27.9815 22.6245 26.6763C21.3737 25.371 20.4128 23.8573 19.7421 22.1351C19.0713 20.3947 18.7359 18.5456 18.7359 16.5877V15.5C18.7359 13.2702 19.0532 11.2307 19.6877 9.38157C20.3222 7.53244 21.2286 5.92806 22.407 4.56841C23.6035 3.20877 25.0538 2.16637 26.7579 1.44123C28.4619 0.697952 30.3836 0.326315 32.5228 0.326315C34.6076 0.326315 36.4567 0.670759 38.0701 1.35965C39.6836 2.04854 41.0341 3.02748 42.1219 4.29648C43.2277 5.56549 44.0616 7.08829 44.6236 8.8649C45.1856 10.6234 45.4666 12.5813 45.4666 14.7386V18.0017H22.0807V12.7807H37.771V12.1824C37.771 11.0947 37.5716 10.1248 37.1728 9.27279C36.792 8.40262 36.2119 7.71373 35.4324 7.20613C34.6529 6.69853 33.6558 6.44473 32.4412 6.44473C31.4078 6.44473 30.5195 6.67134 29.7763 7.12455C29.033 7.57777 28.4257 8.21227 27.9543 9.02806C27.5011 9.84385 27.1567 10.8047 26.921 11.9105C26.7035 12.9982 26.5947 14.1947 26.5947 15.5V16.5877C26.5947 17.7661 26.7579 18.8538 27.0842 19.8508C27.4286 20.8479 27.909 21.709 28.5254 22.4342C29.1599 23.1593 29.9213 23.7213 30.8096 24.1201C31.716 24.519 32.7403 24.7184 33.8824 24.7184C35.2964 24.7184 36.6108 24.4465 37.8254 23.9026C39.0581 23.3406 40.1187 22.4976 41.007 21.3737L44.814 25.507C44.1976 26.3953 43.3546 27.2473 42.285 28.0631C41.2336 28.8789 39.9646 29.5497 38.478 30.0754C36.9915 30.583 35.2964 30.8368 33.3929 30.8368Z" fill="#6200EE"/>
<path d="M50.2254 26.5131C50.2254 25.3529 50.6242 24.383 51.4219 23.6035C52.2376 22.8239 53.3163 22.4342 54.6578 22.4342C55.9993 22.4342 57.0689 22.8239 57.8666 23.6035C58.6824 24.383 59.0903 25.3529 59.0903 26.5131C59.0903 27.6734 58.6824 28.6432 57.8666 29.4228C57.0689 30.2023 55.9993 30.5921 54.6578 30.5921C53.3163 30.5921 52.2376 30.2023 51.4219 29.4228C50.6242 28.6432 50.2254 27.6734 50.2254 26.5131ZM50.2254 4.07894C50.2254 2.91871 50.6242 1.94883 51.4219 1.1693C52.2376 0.389766 53.3163 0 54.6578 0C55.9993 0 57.0689 0.389766 57.8666 1.1693C58.6824 1.94883 59.0903 2.91871 59.0903 4.07894C59.0903 5.23917 58.6824 6.20906 57.8666 6.98859C57.0689 7.76812 55.9993 8.15788 54.6578 8.15788C53.3163 8.15788 52.2376 7.76812 51.4219 6.98859C50.6242 6.20906 50.2254 5.23917 50.2254 4.07894Z" fill="#6200EE"/>
</svg>
