<svg width="33" height="32" viewBox="0 0 33 32" fill="none" xmlns="http://www.w3.org/2000/svg">
<path d="M16.4999 8.92902L20.0354 5.39349C20.9731 4.4558 22.2449 3.92902 23.5709 3.92902C24.897 3.92902 26.1688 4.45581 27.1065 5.39349C28.0442 6.33117 28.5709 7.60294 28.5709 8.92902C28.5709 10.2551 28.0442 11.5269 27.1065 12.4646L21.4496 18.1214C20.5119 19.0591 19.2402 19.5859 17.9141 19.5859C16.588 19.5859 15.3162 19.0591 14.3786 18.1214C14.1408 17.8842 13.9276 17.6236 13.7422 17.3436" stroke="#4B2CAE" stroke-width="2" stroke-miterlimit="10" stroke-linecap="round" stroke-linejoin="round"/>
<path d="M16.5 23.0711L12.9645 26.6066C12.5002 27.0709 11.949 27.4392 11.3424 27.6905C10.7358 27.9418 10.0856 28.0711 9.42898 28.0711C8.1029 28.0711 6.83113 27.5443 5.89344 26.6066C4.95576 25.669 4.42898 24.3972 4.42898 23.0711C4.42898 21.745 4.95576 20.4733 5.89344 19.5356L11.5503 13.8787C12.488 12.941 13.7597 12.4143 15.0858 12.4143C16.4119 12.4143 17.6837 12.941 18.6214 13.8787C18.8591 14.116 19.0723 14.3765 19.2578 14.6565" stroke="#4B2CAE" stroke-width="2" stroke-miterlimit="10" stroke-linecap="round" stroke-linejoin="round"/>
</svg>
