<svg xmlns="http://www.w3.org/2000/svg" xmlns:xlink="http://www.w3.org/1999/xlink" width="1080" zoomAndPan="magnify" viewBox="0 0 810 809.999993" height="1080" preserveAspectRatio="xMidYMid meet" version="1.0"><path fill="#ffffff" d="M 388.800781 502.199219 L 421.199219 502.199219 L 421.199219 469.800781 L 388.800781 469.800781 Z M 405 243 C 315.574219 243 243 315.574219 243 405 C 243 494.425781 315.574219 567 405 567 C 494.425781 567 567 494.425781 567 405 C 567 315.574219 494.425781 243 405 243 Z M 405 534.601562 C 333.558594 534.601562 275.398438 476.441406 275.398438 405 C 275.398438 333.558594 333.558594 275.398438 405 275.398438 C 476.441406 275.398438 534.601562 333.558594 534.601562 405 C 534.601562 476.441406 476.441406 534.601562 405 534.601562 Z M 405 307.800781 C 369.199219 307.800781 340.199219 336.796875 340.199219 372.601562 L 372.601562 372.601562 C 372.601562 354.78125 387.179688 340.199219 405 340.199219 C 422.820312 340.199219 437.398438 354.78125 437.398438 372.601562 C 437.398438 405 388.800781 400.949219 388.800781 453.601562 L 421.199219 453.601562 C 421.199219 417.148438 469.800781 413.101562 469.800781 372.601562 C 469.800781 336.796875 440.800781 307.800781 405 307.800781 Z M 405 307.800781 " fill-opacity="1" fill-rule="nonzero"/></svg>