<svg width="57" height="56" viewBox="0 0 57 56" fill="none" xmlns="http://www.w3.org/2000/svg">
<g clip-path="url(#clip0_92_6643)">
<path d="M39.2101 17.6867L23.8334 33.0634L15.4567 24.71L12.1667 28L23.8334 39.6667L42.5001 21L39.2101 17.6867ZM28.5001 4.66669C15.6201 4.66669 5.16675 15.12 5.16675 28C5.16675 40.88 15.6201 51.3334 28.5001 51.3334C41.3801 51.3334 51.8334 40.88 51.8334 28C51.8334 15.12 41.3801 4.66669 28.5001 4.66669ZM28.5001 46.6667C18.1867 46.6667 9.83342 38.3134 9.83342 28C9.83342 17.6867 18.1867 9.33335 28.5001 9.33335C38.8134 9.33335 47.1668 17.6867 47.1668 28C47.1668 38.3134 38.8134 46.6667 28.5001 46.6667Z" fill="#17C69C"/>
</g>
<defs>
<clipPath id="clip0_92_6643">
<rect width="56" height="56" fill="white" transform="translate(0.5)"/>
</clipPath>
</defs>
</svg>
