<svg width="114" height="35" viewBox="0 0 114 35" fill="none" xmlns="http://www.w3.org/2000/svg">
<path d="M7.83157 9.28771V32.2929H0V2.87017H7.36929L7.83157 9.28771ZM16.6965 2.67982L16.5605 9.94034C16.1798 9.88595 15.7175 9.84063 15.1737 9.80437C14.6479 9.74999 14.1675 9.7228 13.7324 9.7228C12.6266 9.7228 11.6658 9.86782 10.85 10.1579C10.0523 10.4298 9.38157 10.8377 8.83771 11.3816C8.31198 11.9254 7.91315 12.5871 7.64122 13.3666C7.38742 14.1462 7.24239 15.0345 7.20613 16.0316L5.62894 15.5421C5.62894 13.6386 5.81929 11.8892 6.19999 10.2938C6.58069 8.6804 7.13362 7.27543 7.85876 6.07894C8.60203 4.88245 9.50846 3.95789 10.5781 3.30526C11.6476 2.65263 12.8713 2.32632 14.2491 2.32632C14.6842 2.32632 15.1283 2.36257 15.5816 2.43509C16.0348 2.48947 16.4064 2.57105 16.6965 2.67982Z" fill="#6200EE"/>
<path d="M33.3929 32.8368C31.1087 32.8368 29.0602 32.4742 27.2473 31.7491C25.4345 31.0058 23.8935 29.9815 22.6245 28.6763C21.3737 27.371 20.4128 25.8573 19.7421 24.1351C19.0713 22.3947 18.7359 20.5456 18.7359 18.5877V17.5C18.7359 15.2702 19.0532 13.2307 19.6877 11.3816C20.3222 9.53244 21.2286 7.92806 22.407 6.56841C23.6035 5.20877 25.0538 4.16637 26.7579 3.44123C28.4619 2.69795 30.3836 2.32632 32.5228 2.32632C34.6076 2.32632 36.4567 2.67076 38.0701 3.35965C39.6836 4.04854 41.0341 5.02748 42.1219 6.29648C43.2277 7.56549 44.0616 9.08829 44.6236 10.8649C45.1856 12.6234 45.4666 14.5813 45.4666 16.7386V20.0017H22.0807V14.7807H37.771V14.1824C37.771 13.0947 37.5716 12.1248 37.1728 11.2728C36.792 10.4026 36.2119 9.71373 35.4324 9.20613C34.6529 8.69853 33.6558 8.44473 32.4412 8.44473C31.4078 8.44473 30.5195 8.67134 29.7763 9.12455C29.033 9.57777 28.4257 10.2123 27.9543 11.0281C27.5011 11.8438 27.1567 12.8047 26.921 13.9105C26.7035 14.9982 26.5947 16.1947 26.5947 17.5V18.5877C26.5947 19.7661 26.7579 20.8538 27.0842 21.8508C27.4286 22.8479 27.909 23.709 28.5254 24.4342C29.1599 25.1593 29.9213 25.7213 30.8096 26.1201C31.716 26.519 32.7403 26.7184 33.8824 26.7184C35.2964 26.7184 36.6108 26.4465 37.8254 25.9026C39.0581 25.3406 40.1187 24.4976 41.007 23.3737L44.814 27.507C44.1976 28.3953 43.3546 29.2473 42.285 30.0631C41.2336 30.8789 39.9646 31.5497 38.478 32.0754C36.9915 32.583 35.2964 32.8368 33.3929 32.8368Z" fill="#6200EE"/>
<path d="M50.2254 28.5131C50.2254 27.3529 50.6242 26.383 51.4219 25.6035C52.2376 24.8239 53.3163 24.4342 54.6578 24.4342C55.9993 24.4342 57.0689 24.8239 57.8666 25.6035C58.6824 26.383 59.0903 27.3529 59.0903 28.5131C59.0903 29.6734 58.6824 30.6432 57.8666 31.4228C57.0689 32.2023 55.9993 32.5921 54.6578 32.5921C53.3163 32.5921 52.2376 32.2023 51.4219 31.4228C50.6242 30.6432 50.2254 29.6734 50.2254 28.5131ZM50.2254 6.07894C50.2254 4.91871 50.6242 3.94883 51.4219 3.1693C52.2376 2.38977 53.3163 2 54.6578 2C55.9993 2 57.0689 2.38977 57.8666 3.1693C58.6824 3.94883 59.0903 4.91871 59.0903 6.07894C59.0903 7.23917 58.6824 8.20906 57.8666 8.98859C57.0689 9.76812 55.9993 10.1579 54.6578 10.1579C53.3163 10.1579 52.2376 9.76812 51.4219 8.98859C50.6242 8.20906 50.2254 7.23917 50.2254 6.07894Z" fill="#6200EE"/>
<path d="M71.4514 9.9335L73.8806 0.228094H77.9293L73.892 12.568H71.497L71.4514 9.9335ZM70.0144 0.228094L72.4094 9.9335L72.3866 12.568H69.9802L65.9543 0.228094H70.0144Z" fill="#373744"/>
<path d="M83.1298 0.228094V12.568H79.275V0.228094H83.1298Z" fill="#373744"/>
<path d="M91.4781 12.7961C90.4745 12.7961 89.5773 12.6402 88.7866 12.3285C87.9959 12.0092 87.3268 11.572 86.7794 11.017C86.2395 10.4619 85.8252 9.82326 85.5362 9.10096C85.2549 8.37866 85.1143 7.61455 85.1143 6.80861V6.37523C85.1143 5.47046 85.2397 4.63411 85.4906 3.8662C85.7415 3.09068 86.1141 2.414 86.6083 1.83616C87.1025 1.25832 87.7221 0.809735 88.4672 0.490403C89.2124 0.163468 90.0791 0 91.0675 0C91.9419 0 92.725 0.140658 93.4169 0.421974C94.1088 0.70329 94.6942 1.10626 95.1732 1.63087C95.6598 2.15549 96.0286 2.79035 96.2795 3.53546C96.538 4.28057 96.6672 5.11691 96.6672 6.0445V7.60694H86.5855V5.20055H92.9151V4.90403C92.9227 4.49346 92.8505 4.14371 92.6984 3.85479C92.5539 3.56587 92.341 3.34538 92.0597 3.19332C91.7784 3.04126 91.4363 2.96523 91.0333 2.96523C90.6151 2.96523 90.2692 3.05646 89.9955 3.23894C89.7294 3.42141 89.5203 3.67232 89.3682 3.99165C89.2238 4.30338 89.1211 4.66453 89.0603 5.0751C88.9995 5.48567 88.9691 5.91904 88.9691 6.37523V6.80861C88.9691 7.2648 89.0299 7.67917 89.1515 8.05173C89.2808 8.42428 89.4633 8.74361 89.699 9.00972C89.9423 9.26823 90.2312 9.46971 90.5657 9.61417C90.9079 9.75863 91.2956 9.83086 91.729 9.83086C92.2536 9.83086 92.7706 9.73202 93.28 9.53434C93.7894 9.33666 94.2266 9.00972 94.5916 8.55353L96.3365 10.6292C96.0856 10.9865 95.7282 11.3325 95.2645 11.667C94.8083 12.0016 94.2608 12.2753 93.6222 12.4882C92.9835 12.6934 92.2688 12.7961 91.4781 12.7961Z" fill="#373744"/>
<path d="M101.982 8.89568L104.263 0.228094H106.669L105.814 4.57329L103.556 12.568H101.628L101.982 8.89568ZM101.081 0.228094L102.495 8.82725L102.655 12.568H100.317L97.3971 0.228094H101.081ZM108.699 8.64477L110.125 0.228094H113.809L110.912 12.568H108.574L108.699 8.64477ZM106.943 0.228094L109.247 8.87287L109.6 12.568H107.65L105.437 4.5961L104.616 0.228094H106.943Z" fill="#373744"/>
<path d="M71.4514 32.0589L73.8806 22.3535H77.9293L73.892 34.6934H71.497L71.4514 32.0589ZM70.0144 22.3535L72.4094 32.0589L72.3866 34.6934H69.9802L65.9543 22.3535H70.0144Z" fill="#373744"/>
<path d="M84.8862 34.9215C83.8826 34.9215 82.9854 34.7656 82.1947 34.4539C81.4039 34.1346 80.7349 33.6974 80.1874 33.1424C79.6476 32.5873 79.2332 31.9487 78.9443 31.2264C78.663 30.5041 78.5223 29.74 78.5223 28.934V28.5007C78.5223 27.5959 78.6478 26.7595 78.8987 25.9916C79.1496 25.2161 79.5222 24.5394 80.0164 23.9616C80.5106 23.3837 81.1302 22.9352 81.8753 22.6158C82.6204 22.2889 83.4872 22.1254 84.4756 22.1254C85.35 22.1254 86.1331 22.2661 86.825 22.5474C87.5169 22.8287 88.1023 23.2317 88.5813 23.7563C89.0679 24.2809 89.4366 24.9158 89.6876 25.6609C89.9461 26.406 90.0753 27.2423 90.0753 28.1699V29.7324H79.9935V27.326H86.3232V27.0295C86.3308 26.6189 86.2585 26.2691 86.1065 25.9802C85.962 25.6913 85.7491 25.4708 85.4678 25.3187C85.1865 25.1667 84.8443 25.0907 84.4414 25.0907C84.0232 25.0907 83.6773 25.1819 83.4036 25.3644C83.1374 25.5468 82.9284 25.7977 82.7763 26.1171C82.6318 26.4288 82.5292 26.79 82.4684 27.2005C82.4075 27.6111 82.3771 28.0445 82.3771 28.5007V28.934C82.3771 29.3902 82.438 29.8046 82.5596 30.1772C82.6889 30.5497 82.8713 30.869 83.107 31.1351C83.3503 31.3937 83.6393 31.5951 83.9738 31.7396C84.3159 31.8841 84.7037 31.9563 85.1371 31.9563C85.6617 31.9563 86.1787 31.8574 86.6881 31.6598C87.1975 31.4621 87.6347 31.1351 87.9997 30.679L89.7446 32.7546C89.4937 33.112 89.1363 33.4579 88.6725 33.7924C88.2163 34.127 87.6689 34.4007 87.0303 34.6136C86.3916 34.8189 85.6769 34.9215 84.8862 34.9215Z" fill="#373744"/>
<path d="M98.0472 31.5913V26.5048C98.0472 26.1551 97.9978 25.8548 97.8989 25.6039C97.8001 25.353 97.6442 25.1591 97.4314 25.0222C97.2185 24.8778 96.9333 24.8055 96.576 24.8055C96.2871 24.8055 96.04 24.855 95.8347 24.9538C95.6294 25.0526 95.4735 25.2009 95.3671 25.3986C95.2607 25.5963 95.2074 25.8472 95.2074 26.1513H91.364C91.364 25.5811 91.4895 25.0526 91.7404 24.566C91.9989 24.0718 92.3639 23.6423 92.8353 23.2773C93.3143 22.9124 93.8845 22.631 94.546 22.4334C95.215 22.2281 95.9601 22.1254 96.7813 22.1254C97.7621 22.1254 98.6364 22.2889 99.4044 22.6158C100.18 22.9428 100.792 23.4332 101.241 24.087C101.689 24.7333 101.913 25.5468 101.913 26.5276V31.5799C101.913 32.3859 101.959 32.9979 102.05 33.4161C102.141 33.8267 102.271 34.1878 102.438 34.4995V34.6934H98.5832C98.4007 34.3133 98.2639 33.8495 98.1727 33.302C98.089 32.747 98.0472 32.1768 98.0472 31.5913ZM98.5148 27.1549L98.5376 29.2078H96.8383C96.481 29.2078 96.1768 29.2572 95.9259 29.356C95.6826 29.4549 95.4849 29.5917 95.3329 29.7666C95.1884 29.9339 95.082 30.1239 95.0136 30.3368C94.9527 30.5497 94.9223 30.774 94.9223 31.0097C94.9223 31.2378 94.9755 31.4431 95.082 31.6256C95.196 31.8004 95.3481 31.9373 95.5382 32.0361C95.7282 32.135 95.9411 32.1844 96.1768 32.1844C96.6026 32.1844 96.9638 32.1045 97.2603 31.9449C97.5644 31.7776 97.7963 31.5761 97.956 31.3404C98.1156 31.1047 98.1955 30.8842 98.1955 30.679L99.0394 32.2528C98.8874 32.5569 98.7125 32.8649 98.5148 33.1766C98.3247 33.4883 98.0852 33.7772 97.7963 34.0434C97.515 34.3019 97.169 34.5147 96.7585 34.682C96.3479 34.8417 95.8499 34.9215 95.2645 34.9215C94.5041 34.9215 93.8047 34.7656 93.166 34.4539C92.5349 34.1422 92.0293 33.7088 91.6492 33.1538C91.269 32.5912 91.0789 31.9449 91.0789 31.215C91.0789 30.5763 91.193 30.0061 91.4211 29.5043C91.6568 29.0025 92.0103 28.5767 92.4817 28.2269C92.9531 27.8772 93.5537 27.6111 94.2837 27.4286C95.0136 27.2461 95.8727 27.1549 96.8611 27.1549H98.5148Z" fill="#373744"/>
<path d="M108.106 17.1758V34.6934H104.251V17.1758H108.106Z" fill="#373744"/>
</svg>
