<svg width="57" height="56" viewBox="0 0 57 56" fill="none" xmlns="http://www.w3.org/2000/svg">
<g clip-path="url(#clip0_92_6689)">
<path d="M26.1667 35H30.8334V39.6666H26.1667V35ZM26.1667 16.3333H30.8334V30.3333H26.1667V16.3333ZM28.4767 4.66663C15.5967 4.66663 5.16675 15.12 5.16675 28C5.16675 40.88 15.5967 51.3333 28.4767 51.3333C41.3801 51.3333 51.8334 40.88 51.8334 28C51.8334 15.12 41.3801 4.66663 28.4767 4.66663ZM28.5001 46.6666C18.1867 46.6666 9.83342 38.3133 9.83342 28C9.83342 17.6866 18.1867 9.33329 28.5001 9.33329C38.8134 9.33329 47.1668 17.6866 47.1668 28C47.1668 38.3133 38.8134 46.6666 28.5001 46.6666Z" fill="#EE0056"/>
</g>
<defs>
<clipPath id="clip0_92_6689">
<rect width="56" height="56" fill="white" transform="translate(0.5)"/>
</clipPath>
</defs>
</svg>
