<svg width="114" height="35" viewBox="0 0 114 35" fill="none" xmlns="http://www.w3.org/2000/svg">
<path d="M7.83157 9.28771V32.2929H0V2.87017H7.36929L7.83157 9.28771ZM16.6965 2.67982L16.5605 9.94034C16.1798 9.88595 15.7175 9.84063 15.1737 9.80437C14.6479 9.74999 14.1675 9.7228 13.7324 9.7228C12.6266 9.7228 11.6658 9.86782 10.85 10.1579C10.0523 10.4298 9.38157 10.8377 8.83771 11.3816C8.31198 11.9254 7.91315 12.5871 7.64122 13.3666C7.38742 14.1462 7.24239 15.0345 7.20613 16.0316L5.62894 15.5421C5.62894 13.6386 5.81929 11.8892 6.19999 10.2938C6.58069 8.6804 7.13362 7.27543 7.85876 6.07894C8.60203 4.88245 9.50846 3.95789 10.5781 3.30526C11.6476 2.65263 12.8713 2.32632 14.2491 2.32632C14.6842 2.32632 15.1283 2.36257 15.5816 2.43509C16.0348 2.48947 16.4064 2.57105 16.6965 2.67982Z" fill="#6200EE"/>
<path d="M33.3929 32.8368C31.1087 32.8368 29.0602 32.4742 27.2473 31.7491C25.4345 31.0058 23.8935 29.9815 22.6245 28.6763C21.3737 27.371 20.4128 25.8573 19.7421 24.1351C19.0713 22.3947 18.7359 20.5456 18.7359 18.5877V17.5C18.7359 15.2702 19.0532 13.2307 19.6877 11.3816C20.3222 9.53244 21.2286 7.92806 22.407 6.56841C23.6035 5.20877 25.0538 4.16637 26.7579 3.44123C28.4619 2.69795 30.3836 2.32632 32.5228 2.32632C34.6076 2.32632 36.4567 2.67076 38.0701 3.35965C39.6836 4.04854 41.0341 5.02748 42.1219 6.29648C43.2277 7.56549 44.0616 9.08829 44.6236 10.8649C45.1856 12.6234 45.4666 14.5813 45.4666 16.7386V20.0017H22.0807V14.7807H37.771V14.1824C37.771 13.0947 37.5716 12.1248 37.1728 11.2728C36.792 10.4026 36.2119 9.71373 35.4324 9.20613C34.6529 8.69853 33.6558 8.44473 32.4412 8.44473C31.4078 8.44473 30.5195 8.67134 29.7763 9.12455C29.033 9.57777 28.4257 10.2123 27.9543 11.0281C27.5011 11.8438 27.1567 12.8047 26.921 13.9105C26.7035 14.9982 26.5947 16.1947 26.5947 17.5V18.5877C26.5947 19.7661 26.7579 20.8538 27.0842 21.8508C27.4286 22.8479 27.909 23.709 28.5254 24.4342C29.1599 25.1593 29.9213 25.7213 30.8096 26.1201C31.716 26.519 32.7403 26.7184 33.8824 26.7184C35.2964 26.7184 36.6108 26.4465 37.8254 25.9026C39.0581 25.3406 40.1187 24.4976 41.007 23.3737L44.814 27.507C44.1976 28.3953 43.3546 29.2473 42.285 30.0631C41.2336 30.8789 39.9646 31.5497 38.478 32.0754C36.9915 32.583 35.2964 32.8368 33.3929 32.8368Z" fill="#6200EE"/>
<path d="M50.2254 28.5131C50.2254 27.3529 50.6242 26.383 51.4219 25.6035C52.2376 24.8239 53.3163 24.4342 54.6578 24.4342C55.9993 24.4342 57.0689 24.8239 57.8666 25.6035C58.6824 26.383 59.0903 27.3529 59.0903 28.5131C59.0903 29.6734 58.6824 30.6432 57.8666 31.4228C57.0689 32.2023 55.9993 32.5921 54.6578 32.5921C53.3163 32.5921 52.2376 32.2023 51.4219 31.4228C50.6242 30.6432 50.2254 29.6734 50.2254 28.5131ZM50.2254 6.07894C50.2254 4.91871 50.6242 3.94883 51.4219 3.1693C52.2376 2.38977 53.3163 2 54.6578 2C55.9993 2 57.0689 2.38977 57.8666 3.1693C58.6824 3.94883 59.0903 4.91871 59.0903 6.07894C59.0903 7.23917 58.6824 8.20906 57.8666 8.98859C57.0689 9.76812 55.9993 10.1579 54.6578 10.1579C53.3163 10.1579 52.2376 9.76812 51.4219 8.98859C50.6242 8.20906 50.2254 7.23917 50.2254 6.07894Z" fill="#6200EE"/>
<path d="M71.4512 9.9335L73.8804 0.228094H77.929L73.8918 12.568H71.4968L71.4512 9.9335ZM70.0142 0.228094L72.4092 9.9335L72.3864 12.568H69.98L65.9541 0.228094H70.0142Z" fill="white"/>
<path d="M83.1296 0.228094V12.568H79.2748V0.228094H83.1296Z" fill="white"/>
<path d="M91.4778 12.7961C90.4742 12.7961 89.5771 12.6402 88.7863 12.3285C87.9956 12.0092 87.3265 11.572 86.7791 11.017C86.2393 10.4619 85.8249 9.82326 85.536 9.10096C85.2547 8.37866 85.114 7.61455 85.114 6.80861V6.37523C85.114 5.47046 85.2395 4.63411 85.4904 3.8662C85.7413 3.09068 86.1138 2.414 86.608 1.83616C87.1022 1.25832 87.7219 0.809735 88.467 0.490403C89.2121 0.163468 90.0789 0 91.0673 0C91.9416 0 92.7248 0.140658 93.4166 0.421974C94.1085 0.70329 94.694 1.10626 95.173 1.63087C95.6596 2.15549 96.0283 2.79035 96.2792 3.53546C96.5377 4.28057 96.667 5.11691 96.667 6.0445V7.60694H86.5852V5.20055H92.9148V4.90403C92.9224 4.49346 92.8502 4.14371 92.6982 3.85479C92.5537 3.56587 92.3408 3.34538 92.0595 3.19332C91.7782 3.04126 91.436 2.96523 91.0331 2.96523C90.6149 2.96523 90.2689 3.05646 89.9952 3.23894C89.7291 3.42141 89.52 3.67232 89.368 3.99165C89.2235 4.30338 89.1209 4.66453 89.06 5.0751C88.9992 5.48567 88.9688 5.91904 88.9688 6.37523V6.80861C88.9688 7.2648 89.0296 7.67917 89.1513 8.05173C89.2805 8.42428 89.463 8.74361 89.6987 9.00972C89.942 9.26823 90.2309 9.46971 90.5655 9.61417C90.9076 9.75863 91.2954 9.83086 91.7288 9.83086C92.2534 9.83086 92.7704 9.73202 93.2798 9.53434C93.7892 9.33666 94.2264 9.00972 94.5913 8.55353L96.3363 10.6292C96.0854 10.9865 95.728 11.3325 95.2642 11.667C94.808 12.0016 94.2606 12.2753 93.6219 12.4882C92.9833 12.6934 92.2686 12.7961 91.4778 12.7961Z" fill="white"/>
<path d="M101.982 8.89568L104.263 0.228094H106.669L105.814 4.57329L103.555 12.568H101.628L101.982 8.89568ZM101.081 0.228094L102.495 8.82725L102.654 12.568H100.316L97.3969 0.228094H101.081ZM108.699 8.64477L110.125 0.228094H113.808L110.911 12.568H108.574L108.699 8.64477ZM106.943 0.228094L109.246 8.87287L109.6 12.568H107.65L105.437 4.5961L104.616 0.228094H106.943Z" fill="white"/>
<path d="M71.4512 32.0589L73.8804 22.3535H77.929L73.8918 34.6934H71.4968L71.4512 32.0589ZM70.0142 22.3535L72.4092 32.0589L72.3864 34.6934H69.98L65.9541 22.3535H70.0142Z" fill="white"/>
<path d="M84.8859 34.9215C83.8823 34.9215 82.9851 34.7656 82.1944 34.4539C81.4037 34.1346 80.7346 33.6974 80.1872 33.1424C79.6474 32.5873 79.233 31.9487 78.9441 31.2264C78.6628 30.5041 78.5221 29.74 78.5221 28.934V28.5007C78.5221 27.5959 78.6475 26.7595 78.8984 25.9916C79.1494 25.2161 79.5219 24.5394 80.0161 23.9616C80.5103 23.3837 81.13 22.9352 81.8751 22.6158C82.6202 22.2889 83.4869 22.1254 84.4754 22.1254C85.3497 22.1254 86.1328 22.2661 86.8247 22.5474C87.5166 22.8287 88.1021 23.2317 88.581 23.7563C89.0676 24.2809 89.4364 24.9158 89.6873 25.6609C89.9458 26.406 90.0751 27.2423 90.0751 28.1699V29.7324H79.9933V27.326H86.3229V27.0295C86.3305 26.6189 86.2583 26.2691 86.1062 25.9802C85.9618 25.6913 85.7489 25.4708 85.4676 25.3187C85.1862 25.1667 84.8441 25.0907 84.4411 25.0907C84.023 25.0907 83.677 25.1819 83.4033 25.3644C83.1372 25.5468 82.9281 25.7977 82.7761 26.1171C82.6316 26.4288 82.5289 26.79 82.4681 27.2005C82.4073 27.6111 82.3769 28.0445 82.3769 28.5007V28.934C82.3769 29.3902 82.4377 29.8046 82.5594 30.1772C82.6886 30.5497 82.8711 30.869 83.1068 31.1351C83.3501 31.3937 83.639 31.5951 83.9735 31.7396C84.3157 31.8841 84.7034 31.9563 85.1368 31.9563C85.6614 31.9563 86.1785 31.8574 86.6879 31.6598C87.1973 31.4621 87.6345 31.1351 87.9994 30.679L89.7443 32.7546C89.4934 33.112 89.1361 33.4579 88.6723 33.7924C88.2161 34.127 87.6687 34.4007 87.03 34.6136C86.3913 34.8189 85.6767 34.9215 84.8859 34.9215Z" fill="white"/>
<path d="M98.047 31.5913V26.5048C98.047 26.1551 97.9975 25.8548 97.8987 25.6039C97.7999 25.353 97.644 25.1591 97.4311 25.0222C97.2182 24.8778 96.9331 24.8055 96.5758 24.8055C96.2868 24.8055 96.0397 24.855 95.8344 24.9538C95.6292 25.0526 95.4733 25.2009 95.3669 25.3986C95.2604 25.5963 95.2072 25.8472 95.2072 26.1513H91.3638C91.3638 25.5811 91.4893 25.0526 91.7402 24.566C91.9987 24.0718 92.3636 23.6423 92.835 23.2773C93.314 22.9124 93.8842 22.631 94.5457 22.4334C95.2148 22.2281 95.9599 22.1254 96.781 22.1254C97.7618 22.1254 98.6362 22.2889 99.4041 22.6158C100.18 22.9428 100.792 23.4332 101.24 24.087C101.689 24.7333 101.913 25.5468 101.913 26.5276V31.5799C101.913 32.3859 101.959 32.9979 102.05 33.4161C102.141 33.8267 102.271 34.1878 102.438 34.4995V34.6934H98.583C98.4005 34.3133 98.2636 33.8495 98.1724 33.302C98.0888 32.747 98.047 32.1768 98.047 31.5913ZM98.5146 27.1549L98.5374 29.2078H96.8381C96.4807 29.2078 96.1766 29.2572 95.9257 29.356C95.6824 29.4549 95.4847 29.5917 95.3326 29.7666C95.1882 29.9339 95.0817 30.1239 95.0133 30.3368C94.9525 30.5497 94.9221 30.774 94.9221 31.0097C94.9221 31.2378 94.9753 31.4431 95.0817 31.6256C95.1958 31.8004 95.3478 31.9373 95.5379 32.0361C95.728 32.135 95.9409 32.1844 96.1766 32.1844C96.6024 32.1844 96.9635 32.1045 97.26 31.9449C97.5642 31.7776 97.7961 31.5761 97.9557 31.3404C98.1154 31.1047 98.1952 30.8842 98.1952 30.679L99.0392 32.2528C98.8871 32.5569 98.7122 32.8649 98.5146 33.1766C98.3245 33.4883 98.085 33.7772 97.7961 34.0434C97.5147 34.3019 97.1688 34.5147 96.7582 34.682C96.3477 34.8417 95.8497 34.9215 95.2642 34.9215C94.5039 34.9215 93.8044 34.7656 93.1657 34.4539C92.5347 34.1422 92.0291 33.7088 91.6489 33.1538C91.2688 32.5912 91.0787 31.9449 91.0787 31.215C91.0787 30.5763 91.1927 30.0061 91.4208 29.5043C91.6565 29.0025 92.0101 28.5767 92.4815 28.2269C92.9529 27.8772 93.5535 27.6111 94.2834 27.4286C95.0133 27.2461 95.8725 27.1549 96.8609 27.1549H98.5146Z" fill="white"/>
<path d="M108.106 17.1758V34.6934H104.251V17.1758H108.106Z" fill="white"/>
</svg>
